<?xml version="1.0" encoding="UTF-8"?>
<svg xmlns="http://www.w3.org/2000/svg" xmlns:xlink="http://www.w3.org/1999/xlink" width="50px" height="50px" viewBox="0 0 50 50" version="1.1">
<g id="surface1">
<path style=" stroke:none;fill-rule:evenodd;fill:rgb(0%,0%,0%);fill-opacity:1;" d="M 23.4375 5.914062 C 19.777344 6.871094 17.808594 11.136719 19.484375 14.472656 C 19.617188 14.738281 19.726562 14.972656 19.726562 14.996094 C 19.726562 15.015625 17.753906 15.042969 15.347656 15.058594 C 11.625 15.082031 10.941406 15.109375 10.789062 15.234375 C 10.371094 15.582031 10.351562 15.804688 10.351562 20.207031 L 10.351562 24.402344 L 9.691406 24.101562 C 4.820312 21.890625 -0.382812 26.679688 1.398438 31.734375 C 2.585938 35.105469 6.640625 36.78125 9.785156 35.203125 C 10.050781 35.070312 10.289062 34.960938 10.3125 34.960938 C 10.332031 34.960938 10.351562 36.863281 10.351562 39.183594 C 10.351562 43.945312 10.355469 43.976562 11.035156 44.207031 C 11.519531 44.375 21.878906 44.375 22.363281 44.207031 C 23.257812 43.902344 23.203125 43.09375 22.222656 42.144531 C 19.054688 39.089844 22.023438 33.867188 26.191406 35.15625 C 29.277344 36.109375 30.09375 39.882812 27.714844 42.191406 C 26.777344 43.105469 26.71875 43.753906 27.539062 44.164062 C 27.96875 44.378906 38.34375 44.417969 38.964844 44.207031 C 39.644531 43.976562 39.648438 43.945312 39.648438 39.183594 C 39.648438 36.863281 39.667969 34.960938 39.6875 34.960938 C 39.710938 34.960938 39.949219 35.070312 40.214844 35.203125 C 43.367188 36.789062 47.5625 35.023438 48.640625 31.660156 C 50.277344 26.5625 45.144531 21.90625 40.308594 24.101562 L 39.648438 24.402344 L 39.648438 20.207031 C 39.648438 15.804688 39.628906 15.582031 39.210938 15.234375 C 39.058594 15.109375 38.375 15.082031 34.652344 15.058594 C 32.246094 15.042969 30.273438 15.015625 30.273438 14.996094 C 30.273438 14.976562 30.382812 14.746094 30.515625 14.488281 C 32.832031 9.964844 28.414062 4.613281 23.4375 5.914062 "/>
</g>
</svg>
