<?xml version="1.0" encoding="UTF-8"?>
<svg xmlns="http://www.w3.org/2000/svg" xmlns:xlink="http://www.w3.org/1999/xlink" width="50px" height="50px" viewBox="0 0 50 50" version="1.1">
<g id="surface1">
<path style=" stroke:none;fill-rule:evenodd;fill:rgb(0%,0%,0%);fill-opacity:1;" d="M 20 3.25 C 20 7.207031 17.414062 8.125 13.085938 5.695312 C 8.050781 2.875 2.34375 9.171875 6.136719 13.363281 C 8.449219 15.917969 7.070312 18.863281 3.191406 19.640625 C -1.371094 20.550781 -1.785156 30 2.738281 30 C 6.53125 30 8.597656 33.917969 6.199219 36.570312 C 2.097656 41.101562 8.898438 47.902344 13.429688 43.800781 C 16.082031 41.402344 20 43.46875 20 47.261719 C 20 49.765625 20.425781 50 25 50 C 29.769531 50 30 49.851562 30 46.796875 C 30 42.964844 33.835938 41.328125 36.714844 43.929688 C 41.011719 47.820312 47.820312 41.011719 43.929688 36.714844 C 41.328125 33.835938 42.964844 30 46.796875 30 C 49.851562 30 50 29.769531 50 25 C 50 20.425781 49.765625 20 47.261719 20 C 43.46875 20 41.402344 16.082031 43.800781 13.429688 C 46.332031 10.632812 45.96875 8.265625 42.597656 5.613281 L 39.640625 3.285156 L 37.214844 5.5625 C 34.136719 8.453125 31.210938 7.441406 30.359375 3.191406 C 29.367188 -1.773438 20 -1.722656 20 3.25 M 29.425781 20.695312 C 32.027344 23.296875 31.117188 27.949219 27.628906 29.898438 C 21.753906 33.179688 15.875 25.394531 20.636719 20.636719 C 22.894531 18.375 27.132812 18.402344 29.425781 20.695312 "/>
</g>
</svg>
