<?xml version="1.0" encoding="UTF-8"?>
<svg xmlns="http://www.w3.org/2000/svg" xmlns:xlink="http://www.w3.org/1999/xlink" width="50px" height="50px" viewBox="0 0 50 50" version="1.1">
<g id="surface1">
<path style=" stroke:none;fill-rule:evenodd;fill:rgb(0%,0%,0%);fill-opacity:1;" d="M 24.699219 8.726562 C 24.652344 8.742188 19.617188 10.308594 13.511719 12.203125 C 7.40625 14.101562 2.042969 15.769531 1.585938 15.910156 C 0.671875 16.195312 0.550781 16.246094 0.363281 16.433594 C -0.15625 16.953125 0 17.894531 0.65625 18.199219 C 0.742188 18.242188 1.667969 18.542969 2.710938 18.871094 C 3.757812 19.199219 4.980469 19.585938 5.429688 19.726562 L 6.25 19.984375 L 6.25 25.472656 L 6.132812 25.542969 C 4.804688 26.359375 4.292969 28.160156 4.992188 29.527344 L 5.101562 29.746094 L 5.011719 29.925781 C 4.660156 30.625 4.675781 30.386719 4.675781 35.28125 L 4.675781 39.472656 L 4.726562 39.613281 C 5.253906 41.015625 10.496094 40.976562 10.914062 39.566406 C 10.960938 39.410156 10.96875 31.269531 10.921875 30.898438 C 10.882812 30.558594 10.808594 30.308594 10.660156 30.007812 L 10.527344 29.730469 L 10.625 29.519531 C 11.296875 28.082031 10.859375 26.445312 9.578125 25.601562 L 9.375 25.46875 L 9.375 20.96875 L 9.441406 20.984375 C 9.476562 20.996094 12.199219 21.84375 15.484375 22.875 C 18.773438 23.902344 22.203125 24.976562 23.113281 25.261719 L 24.761719 25.777344 L 25.261719 25.761719 L 36.664062 22.214844 C 42.933594 20.265625 48.332031 18.585938 48.664062 18.484375 C 49.328125 18.273438 49.453125 18.21875 49.628906 18.042969 C 50.152344 17.523438 50.011719 16.605469 49.359375 16.28125 C 49.28125 16.242188 48.789062 16.074219 48.273438 15.914062 C 47.757812 15.753906 42.386719 14.066406 36.335938 12.167969 L 25.335938 8.71875 L 25.0625 8.710938 C 24.910156 8.707031 24.75 8.714844 24.699219 8.726562 M 25.816406 15.6875 C 27.714844 15.933594 28.699219 16.988281 27.839844 17.863281 C 26.714844 19.007812 23.441406 19.023438 22.285156 17.886719 C 21.363281 16.980469 22.433594 15.867188 24.425781 15.667969 C 24.6875 15.640625 25.550781 15.652344 25.816406 15.6875 M 12.507812 29.140625 L 12.511719 33.289062 L 12.570312 33.476562 C 13.351562 36.007812 17.953125 37.5 25 37.5 C 32.039062 37.5 36.660156 36.003906 37.429688 33.476562 L 37.488281 33.289062 L 37.492188 29.140625 L 37.5 24.996094 L 37.429688 25.011719 C 37.371094 25.027344 35.355469 25.648438 29.550781 27.449219 C 24.773438 28.929688 25.214844 28.8125 24.746094 28.753906 C 24.605469 28.734375 24.476562 28.710938 24.453125 28.699219 C 24.429688 28.6875 23.355469 28.347656 22.0625 27.949219 C 19.277344 27.085938 19.105469 27.03125 15.460938 25.902344 C 13.910156 25.421875 12.605469 25.019531 12.570312 25.011719 L 12.5 24.996094 L 12.507812 29.140625 "/>
</g>
</svg>
